<?xml version="1.0" encoding="utf-8"?>
<!-- Generator: Adobe Illustrator 22.0.1, SVG Export Plug-In . SVG Version: 6.00 Build 0)  -->
<svg version="1.1" id="Capa_1" xmlns="http://www.w3.org/2000/svg" xmlns:xlink="http://www.w3.org/1999/xlink" x="0px" y="0px"
	 viewBox="0 0 152 360" style="enable-background:new 0 0 152 360;" xml:space="preserve">
<g id="_x33_8-Award_symbol">
	<g>
		<path d="M14.9,189.9c0.1,0.7,0.1,1.4,0.2,2c0.1,1.4,0.2,2.8,0.5,4.1c3.1,12.5,8.2,22.5,15.7,30.4c3.2,3.4,6.6,5.4,10.3,6
			c0.9,0.2,2.1,0.2,4,0l0.6,0c0.1,0,0.2,0,0.2,0c0.2,0,0.2,0,0.3,0.1l2.6,3.7c0,0,0.1,0.2,0.1,0.3l0,0.1c2.7,9.6,6.1,18.8,10,27.5
			c-1.8-2.6-3.7-4.9-5.9-7.1c-10-10.1-27.1-10.4-29.1-10.4l-0.4,0c-0.5,0.2-0.7,0.7-0.6,1.2c0.1,0.5,0.3,0.9,0.4,1.4
			c0.3,1.1,0.6,2.2,1,3.2c1.9,4.9,5,9.7,9.7,15c3.2,3.6,6.9,7.3,11.6,9.6c5.2,2.5,9.9,3.2,14.5,1.9c0.8-0.2,1.7-0.5,2.5-1
			c0.6-0.4,0.7-0.4,1.3,0.1c0.7,0.5,1.3,0.9,2,1.3c0.4,0.2,0.7,0.5,1.1,0.7c0,0,0.2,0.2,0.2,0.3c4.2,7.1,8.8,13.7,13.8,19.7
			c-2.7-2-5.5-3.5-8.4-4.5c-9-3-18.4-2.6-27.7,1.1c-1.4,0.6-2.9,1.4-3,1.4c-0.3,0.2-0.4,0.4-0.4,0.7c0,0.3,0,0.5,0.2,0.8
			c0.3,0.4,0.6,0.8,0.8,1.2l0.1,0.1c0.6,0.9,1.3,1.9,2.1,2.8c3.6,4,8,6.7,12.3,9c5.9,3.2,11.8,4.9,17.8,5.1c0.3,0,0.6,0,0.8,0
			c5.5,0,9.8-1.9,13.1-5.8c0,0,0.2-0.1,0.3-0.1c1.2,0.1,2.4,0.3,3.3,0.4c0.1,0,0.3,0.1,0.4,0.2c5.5,5.1,11.3,9.5,17.4,13.3
			c-0.9-0.3-1.9-0.5-2.8-0.7c-6.5-1.3-13.2-0.5-20.5,2.5c-4.9,2-9.5,5-14,9.2c-0.4,0.3-0.4,0.9-0.1,1.3c1.6,2.1,3.7,3.3,5.5,4.2
			c4.4,2.1,9.4,3.5,15.3,4.2c0,0,1.9,0.2,4.5,0.2c1.9,0,3.7-0.1,5.3-0.3c1.5-0.2,3-0.4,4.5-0.8c6.8-1.7,11.3-5.2,14-10.8
			c0,0,0.2-0.1,0.5-0.2c1.2-0.3,2.3-0.5,3.4-0.7c0.3,0,0.6,0,0.9,0.2c4.7,1.9,9.6,3.4,14.7,4.6c0.4,0.1,0.8-0.1,1-0.5
			c0.5-0.9,1.1-1.8,1.7-2.7c0.2-0.3,0.3-0.6,0.2-0.9c-0.1-0.3-0.4-0.6-0.7-0.6c-6.2-1.4-12.4-3.5-18.9-6.4c-0.1,0-0.3-0.3-0.3-0.5
			c-0.6-2.3-0.9-4.6-0.7-7.1c1.3-15.8-7.7-32.4-21.4-39.5c-0.3-0.2-0.6-0.3-0.9-0.4l-0.3-0.1c-0.3-0.1-0.7-0.1-0.9,0.1
			c-0.3,0.2-0.4,0.6-0.3,0.9l0.4,2.4c0.3,2.1,0.7,4.2,1,6.3l0.1,0.5c0.9,6,1.8,12.1,3.6,18c1.6,5.3,4.1,9.5,7.5,12.8
			c-7.2-4.4-14-9.8-20.1-15.9c-0.1-0.1-0.3-0.5-0.3-0.8l-0.2-4.2c0-0.1,0-0.5,0.1-0.7c3-7.3,3.8-15.6,2.4-25.2
			c-1.4-9.3-5.2-17.8-11.3-25.4c-0.9-1.1-1.7-1.5-2.2-1.3c-0.3,0.1-0.5,0.4-0.5,0.8l-0.2,1.5c-0.1,1.1-0.2,2.2-0.4,3.2
			c-0.2,1.9-0.4,3.8-0.6,5.7l0,0.3c-0.5,4.7-1.1,9.6-1.3,14.5c-0.3,5.7-0.2,12.4,3,18.5c0,0,0,0.1,0.1,0.1
			c-4.5-5.9-8.6-12.2-12.3-18.8c-0.3-0.6-0.4-1.1-0.3-1.9c0.3-3.2,1.7-5.8,3.2-8.1c2.9-4.5,4.7-9.8,5.7-17.3
			c1.5-10.4,0-20.9-4.4-31.1c-0.1-0.3-0.3-0.6-0.4-0.8l-0.3-0.7c-0.2-0.3-0.5-0.5-0.8-0.5c-0.4,0-0.8,0.3-0.9,0.6
			c-1.1,2.8-2.1,5.4-3.1,8.1l-0.6,1.7c-2.2,5.6-4.6,12.2-6,19c-1,4.8-1.1,9.4-0.2,13.8c-3.4-8.4-6.1-17.2-8.3-26.4
			c0-0.1,0-0.4,0.2-1c1-2.8,2.8-5.4,5.1-7.2c5-4,7.9-9.6,10-14.5c4.3-10.1,5.5-20.7,3.6-32.7c0-0.1-0.1-0.2-0.1-0.4l0-0.1
			c-0.1-0.3-0.3-0.5-0.5-0.6c-0.3-0.1-0.5-0.1-0.8,0c-0.2,0.1-0.5,0.2-0.7,0.5c-1.1,1.5-2.2,3-3.3,4.5l-0.2,0.3
			c-2.8,3.9-5.7,7.8-8.4,11.8c-3.2,4.6-5.5,9-6.9,13.6c-0.7,2.2-1.2,4.3-1.4,6.4c-0.9-7.4-1.4-15-1.6-22.7c0-1.8,0.2-3.3,1.4-4.9
			c1.3-1.7,2.5-2.6,4.1-3.3c6.7-2.6,11-7.9,14-12.4c4.8-7.1,7.7-15.4,8.7-25.4c0.1-1,0.2-2.1,0.2-3.2l0-0.2c0-0.5,0.1-1.1,0.1-1.7
			c0-0.4-0.2-0.8-0.5-0.9c-0.3-0.2-0.7-0.1-1,0.1l-0.8,0.7c-0.3,0.3-0.6,0.5-0.8,0.7c-1.3,1.1-2.6,2.1-3.8,3.2l-0.1,0.1
			c-2.8,2.3-5.7,4.7-8.5,7.2c-5.4,4.8-8.9,9.6-11,15.1c-0.3,0.9-0.6,1.8-0.9,2.7c0.9-8.7,2.2-17.2,4.1-25.5c0.2-1,0.4-1.3,0.8-1.5
			c0.3-0.1,0.6-0.3,0.8-0.6c1.4-1.6,3.2-1.9,4.9-1.9c5.9-0.1,10.5-3.2,14.3-6.1c9.2-7.3,15.6-25.7,15.6-26.3c0-0.3-0.2-0.6-0.4-0.8
			c-0.3-0.2-0.6-0.2-0.9-0.1c-1.9,0.8-3.8,1.7-5.8,2.5c-4.5,1.9-9,3.9-13.4,6c-4.4,2.2-7.8,5-10.3,8.6c2.4-7,5.1-13.8,8.2-20.4
			c0.3-0.7,2-1.5,4.4-1.5c0.8,0,1.5,0.1,2.2,0.2c5.6,1.4,11.1,0.5,17.2-2.6c6.3-3.3,11.5-8.6,15.9-16.3c0.1-0.2,0.3-0.6,0.3-0.9
			c0.1-0.3,0.1-0.7-0.1-0.9c-0.2-0.2-0.5-0.4-0.7-0.4l-2.3,0.1c-1.4,0.1-2.7,0.2-4,0.2L98,78.2c-4.2,0.2-8.5,0.4-12.8,1.5
			c-4.8,1.2-8.4,3.1-11.1,5.8c3.2-5.6,6.7-10.9,10.3-15.9c0.1-0.1,0.6-0.3,0.9-0.4c0.2-0.1,0.9-0.2,1.9-0.2c1.2,0,2.3,0.3,3.2,0.8
			c5.9,3,12.4,3.2,19.5,0.7c5.8-2.1,10.7-5.9,15.1-11.7c0.1-0.2,0.3-0.4,0.4-0.6c0.1-0.2,0.1-0.5,0-0.8c-0.3-0.7-1.8-1.1-2.4-1.2
			c-1.5-0.3-3.2-0.6-4.9-0.8c-0.8-0.1-1.5-0.2-2.3-0.3l-0.1,0c-2.6-0.4-5.3-0.8-8-1c-5-0.3-9.4,0.8-13,3.1c2.4-2.7,4.9-5.3,7.4-7.7
			c0.8-0.8,1.7-1.5,2.9-2.5c0.1-0.1,0.3-0.2,0.6-0.2c8.7-0.4,16-4.4,22.2-12.3c3.4-4.3,6-9.7,7.9-16.6l0.1-0.2
			c0.2-0.7,0.3-1.1-0.2-1.6c-0.4-0.4-1.1-0.2-2.7,0.4c-1.6,0.6-3.1,1.2-4.7,1.8c-3.2,1.2-6.5,2.5-9.7,4c-5.3,2.4-9.6,6.1-12.6,10.8
			c-2.3,3.6-3.2,7.3-2.8,11.2c0,0,0,0.1-0.1,0.2c-5.5,5-10.8,10.6-16.3,17.3c3.6-5.8,6-12.4,7.2-20.2c1.2-7.8,1.3-14.7,0.2-21.2
			c-0.1-0.4-0.2-0.8-0.3-1.3l-0.2-0.8c-0.1-0.3-0.3-0.6-0.6-0.7c-0.3-0.1-0.7,0-0.9,0.2c-0.4,0.4-0.8,0.7-1.1,1.1l-0.3,0.2
			c-0.9,0.9-1.8,1.7-2.6,2.6C80.5,30.9,76,40.5,74.4,51.2c-0.7,4.8-0.4,8.9,0.9,12.5c0.4,1.2,1.1,2.3,1.8,3.3c0.3,0.5,0.6,1,0.9,1.5
			c0.2,0.3,0.2,0.5,0.2,0.5c-0.1,1.4-0.3,3-0.6,4.9c0,0,0,0-0.1,0.2l-0.1,0.1c-4.2,6.1-8.1,12.6-11.6,19.3c1.4-5,2.5-11.3,2.4-18.6
			c-0.1-8.8-2-16.7-5.9-24c-0.2-0.3-0.4-0.5-0.8-0.5c-0.4,0-0.6,0.1-0.8,0.4c-0.1,0.2-0.2,0.3-0.4,0.5c-0.3,0.3-0.5,0.7-0.7,1
			c-3.1,5.1-4.8,10.7-5.9,15c-2,7.9-3,14.5-2.9,20.8c0,5.3,1,9.4,2.9,12.9c0.6,1.1,1.4,2,2.2,2.9c0.4,0.5,0.9,1.1,1.3,1.6
			c0.3,0.4,0.4,0.7,0.4,1c0.1,1.3,0,2.6,0,3.8l0,0.9c0,0.1,0,0.3-0.1,0.5c-2.5,6.3-4.7,12.9-6.6,19.6c0.3-2.3,0.4-4.5,0.5-6.7
			c0.2-12.3-3.4-23.3-10.8-32.6l-1.5-2c-0.2-0.2-0.4-0.4-0.7-0.4l-0.2,0c-0.3,0.1-0.6,0.3-0.7,0.6c-0.1,0.4-0.3,0.8-0.4,1.1
			c-0.3,0.7-0.5,1.3-0.7,2c-1.6,5.2-2.4,10.8-2.5,18.3l0,0.1c-0.1,5.4-0.3,12.9,1.9,20c2.1,7,5.8,10.6,6.6,11.2l0.1,0.1
			c2,1.8,3.2,3.5,3.5,4.6c0.1,0.4,0.2,0.9,0.3,1.3c0.6,1.9,0.2,3.8-0.2,5.7c-0.2,1-0.4,2.1-0.5,3.1c-0.3,4.3-0.6,8.6-0.9,12.8l0,0.4
			c-0.1,1.1-0.2,2.1-0.2,3.2c-0.8-9.6-3.9-18.3-9.1-26c-3.2-4.7-7-8.7-11.4-12c-0.2-0.1-0.4-0.3-0.6-0.4c-0.1-0.1-0.3-0.2-0.5-0.3
			c-0.3-0.2-0.6-0.2-0.9,0c-0.3,0.1-0.5,0.4-0.5,0.8c-0.1,0.6-0.1,1.2-0.2,1.8c-0.1,1.3-0.3,2.5-0.3,3.7
			c-0.1,12.5,2.5,24.3,7.6,34.9c1.4,3,3.3,5.5,5.6,7.6c2.3,2.1,4.7,3.3,7.4,3.7c0.1,0,0.2,0.1,0.2,0.2c0.1,0.3,0.3,0.6,0.4,0.9
			c0.5,1.1,1.1,2.2,1.4,3.4c0.2,1,0.2,2,0.2,3.1c0,0.4,0,0.8,0,1.2c0.3,9.7,0.6,13.1,2.1,21.7c-0.9-2.6-2.1-5.2-3.5-7.6
			c-6-10.1-13.6-16.9-23.2-20.9c-0.6-0.3-1.2-0.4-1.9-0.7l-0.1,0c-0.3-0.1-0.6-0.2-0.9-0.3c-0.3-0.1-0.6,0-0.9,0.2
			C15,189.3,14.9,189.6,14.9,189.9z"/>
	</g>
</g>
</svg>
