<?xml version="1.0" encoding="utf-8"?>
<!-- Generator: Adobe Illustrator 22.0.1, SVG Export Plug-In . SVG Version: 6.00 Build 0)  -->
<svg version="1.1" id="Capa_1" xmlns="http://www.w3.org/2000/svg" xmlns:xlink="http://www.w3.org/1999/xlink" x="0px" y="0px"
	 viewBox="0 0 152 360" style="enable-background:new 0 0 152 360;" xml:space="preserve">
<g id="_x33_8-Award_symbol">
	<g>
		<path d="M144.6,189.1c-0.2-0.2-0.6-0.3-0.9-0.2c-0.3,0.1-0.6,0.2-0.9,0.3l-0.1,0c-0.7,0.2-1.3,0.4-1.9,0.7
			c-9.6,4-17.2,10.8-23.2,20.9c-1.5,2.5-2.6,5.1-3.5,7.6c1.5-8.7,1.8-12,2.1-21.7c0-0.4,0-0.8,0-1.2c0-1.1,0-2.2,0.2-3.1
			c0.3-1.1,0.8-2.3,1.4-3.4c0.2-0.3,0.3-0.6,0.4-0.9c0-0.1,0.2-0.1,0.2-0.2c2.8-0.4,5.2-1.7,7.4-3.7c2.3-2.1,4.1-4.7,5.6-7.6
			c5.1-10.6,7.6-22.4,7.6-34.9c0-1.2-0.1-2.4-0.3-3.7c-0.1-0.6-0.1-1.2-0.2-1.8c0-0.3-0.2-0.6-0.5-0.8c-0.3-0.1-0.6-0.1-0.9,0
			c-0.2,0.1-0.3,0.2-0.5,0.3c-0.3,0.2-0.5,0.3-0.6,0.4c-4.3,3.2-8.2,7.3-11.4,12c-5.2,7.7-8.3,16.4-9.1,26c-0.1-1.1-0.2-2.1-0.2-3.2
			l0-0.4c-0.3-4.2-0.7-8.5-0.9-12.8c-0.1-1.1-0.3-2.1-0.5-3.1c-0.4-1.9-0.7-3.8-0.2-5.7c0.1-0.4,0.2-0.9,0.3-1.3
			c0.3-1.1,1.5-2.8,3.5-4.6l0.1-0.1c0.7-0.6,4.4-4.2,6.6-11.2c2.1-7.1,2-14.6,1.9-20l0-0.1c-0.2-7.5-0.9-13.1-2.5-18.3
			c-0.2-0.7-0.4-1.3-0.7-2c-0.1-0.4-0.3-0.7-0.4-1.1c-0.1-0.3-0.4-0.6-0.7-0.6l-0.2,0c-0.3,0-0.5,0.1-0.7,0.4l-1.5,2
			c-7.4,9.4-11,20.3-10.8,32.6c0,2.2,0.2,4.4,0.5,6.7c-1.9-6.7-4.1-13.3-6.6-19.6c-0.1-0.1-0.1-0.3-0.1-0.5l0-0.9
			c0-1.2-0.1-2.5,0-3.8c0-0.2,0.1-0.6,0.4-1c0.4-0.5,0.8-1.1,1.3-1.6c0.8-0.9,1.5-1.9,2.2-2.9c2-3.5,2.9-7.6,2.9-12.9
			c0-6.3-0.9-12.9-2.9-20.8c-1.1-4.3-2.8-9.9-5.9-15c-0.2-0.3-0.4-0.7-0.7-1c-0.1-0.2-0.2-0.3-0.4-0.5c-0.2-0.2-0.4-0.4-0.8-0.4
			c-0.3,0-0.6,0.2-0.8,0.5c-3.9,7.3-5.9,15.2-5.9,24c-0.1,7.3,1,13.7,2.4,18.6c-3.5-6.7-7.4-13.1-11.6-19.3l-0.1-0.1
			c-0.1-0.1-0.1-0.2-0.1-0.2c-0.3-2-0.5-3.6-0.6-4.9c0,0,0-0.1,0.2-0.5c0.3-0.5,0.6-1,0.9-1.5c0.7-1,1.3-2.1,1.8-3.3
			c1.3-3.6,1.6-7.7,0.9-12.5c-1.5-10.7-6.1-20.3-13.8-29.3c-0.8-0.9-1.7-1.8-2.6-2.6L68.8,19c-0.4-0.3-0.7-0.7-1.1-1.1
			c-0.2-0.2-0.6-0.3-0.9-0.2c-0.3,0.1-0.6,0.4-0.6,0.7l-0.2,0.8c-0.1,0.5-0.2,0.9-0.3,1.3c-1,6.5-1,13.4,0.2,21.2
			c1.2,7.7,3.6,14.4,7.2,20.2c-5.4-6.7-10.8-12.3-16.3-17.3c0,0-0.1-0.1-0.1-0.2c0.4-3.9-0.5-7.5-2.8-11.2
			c-3.1-4.8-7.3-8.4-12.6-10.8c-3.2-1.4-6.5-2.7-9.7-4c-1.5-0.6-3.1-1.2-4.7-1.8c-1.6-0.7-2.3-0.8-2.7-0.4c-0.5,0.5-0.4,0.9-0.2,1.6
			l0.1,0.2c2,6.8,4.5,12.3,7.9,16.6c6.2,7.9,13.5,11.9,22.2,12.3c0.3,0,0.5,0.1,0.6,0.2c1.2,1,2.1,1.7,2.9,2.5c2.5,2.4,5,5,7.4,7.7
			c-3.6-2.3-8-3.4-13-3.1c-2.7,0.1-5.4,0.6-8,1l-0.1,0c-0.8,0.1-1.5,0.2-2.3,0.3c-1.7,0.2-3.4,0.5-4.9,0.8c-0.6,0.1-2.1,0.5-2.4,1.2
			c-0.1,0.3-0.1,0.5,0,0.8c0.1,0.2,0.2,0.4,0.4,0.6c4.3,5.8,9.2,9.7,15.1,11.7c7.1,2.5,13.6,2.3,19.5-0.7c0.9-0.5,2-0.8,3.2-0.8
			c0.9,0,1.6,0.2,1.9,0.2c0.3,0.1,0.8,0.3,0.9,0.4c3.6,5,7.1,10.3,10.3,15.9c-2.7-2.8-6.3-4.6-11.1-5.8c-4.2-1.1-8.6-1.3-12.8-1.5
			l-1.4-0.1c-1.3-0.1-2.6-0.2-4-0.2l-2.3-0.1c-0.3,0-0.6,0.1-0.7,0.4c-0.2,0.3-0.2,0.6-0.1,0.9c0.1,0.3,0.3,0.7,0.3,0.9
			c4.4,7.7,9.6,13,15.9,16.3c6.1,3.2,11.6,4,17.2,2.6c0.6-0.2,1.4-0.2,2.2-0.2c2.4,0,4,0.8,4.4,1.5c3.1,6.6,5.8,13.4,8.2,20.4
			c-2.5-3.6-5.9-6.4-10.3-8.6c-4.4-2.1-8.9-4.1-13.4-6c-1.9-0.8-3.8-1.7-5.8-2.5c-0.3-0.1-0.6-0.1-0.9,0.1c-0.3,0.2-0.4,0.5-0.4,0.8
			c0,0.6,6.4,19,15.6,26.3c3.8,3,8.4,6,14.3,6.1c1.8,0,3.6,0.3,4.9,1.9c0.2,0.3,0.5,0.5,0.8,0.6c0.5,0.2,0.6,0.5,0.8,1.5
			c1.9,8.3,3.3,16.8,4.1,25.5c-0.3-0.9-0.6-1.8-0.9-2.7c-2.1-5.5-5.6-10.2-11-15.1c-2.8-2.5-5.7-4.9-8.5-7.2l-0.1-0.1
			c-1.3-1.1-2.6-2.1-3.8-3.2c-0.3-0.2-0.5-0.4-0.8-0.7l-0.8-0.7c-0.3-0.2-0.7-0.3-1-0.1c-0.3,0.2-0.5,0.5-0.5,0.9
			c0,0.6,0.1,1.1,0.1,1.7l0,0.2c0.1,1.1,0.1,2.1,0.2,3.2c1,10,3.8,18.3,8.7,25.4c3,4.4,7.3,9.8,14,12.4c1.6,0.6,2.8,1.6,4.1,3.3
			c1.2,1.6,1.4,3,1.4,4.9c-0.1,7.6-0.6,15.2-1.6,22.7c-0.2-2.1-0.7-4.2-1.4-6.4c-1.5-4.6-3.7-9-6.9-13.6c-2.8-4-5.6-7.9-8.4-11.8
			l-0.2-0.3c-1.1-1.5-2.2-3.1-3.3-4.5c-0.2-0.3-0.5-0.4-0.7-0.5c-0.2-0.1-0.5-0.1-0.8,0c-0.2,0.1-0.4,0.3-0.5,0.6l0,0.1
			c0,0.1-0.1,0.3-0.1,0.4c-1.9,11.9-0.7,22.6,3.6,32.7c2.1,4.9,5,10.5,10,14.5c2.3,1.8,4.1,4.4,5.1,7.2c0.2,0.6,0.2,0.9,0.2,1
			c-2.1,9.2-4.9,18-8.3,26.4c0.9-4.4,0.8-9-0.2-13.8c-1.4-6.8-3.8-13.4-6-19l-0.6-1.7c-1-2.6-2-5.3-3.1-8.1
			c-0.1-0.4-0.5-0.6-0.9-0.6c-0.3,0-0.6,0.2-0.8,0.5l-0.3,0.7c-0.1,0.3-0.3,0.6-0.4,0.8c-4.3,10.2-5.8,20.6-4.4,31.1
			c1,7.4,2.8,12.8,5.7,17.3c1.5,2.3,2.9,4.9,3.2,8.1c0.1,0.8,0,1.3-0.3,1.9c-3.7,6.7-7.8,13-12.3,18.8c0,0,0-0.1,0.1-0.1
			c3.2-6.2,3.3-12.8,3-18.5c-0.3-4.9-0.8-9.8-1.3-14.5l0-0.3c-0.2-1.9-0.4-3.8-0.6-5.7c-0.1-1.1-0.2-2.1-0.4-3.2l-0.2-1.5
			c0-0.3-0.2-0.6-0.5-0.8c-0.5-0.3-1.3,0.2-2.2,1.3c-6.1,7.6-9.9,16.1-11.3,25.4c-1.4,9.6-0.7,17.9,2.4,25.2
			c0.1,0.2,0.1,0.6,0.1,0.7l-0.2,4.2c0,0.3-0.2,0.6-0.3,0.8c-6.1,6.1-12.9,11.5-20.1,15.9c3.4-3.2,5.9-7.4,7.5-12.8
			c1.8-5.9,2.7-12.1,3.6-18l0.1-0.5c0.3-2.1,0.6-4.2,1-6.3l0.4-2.4c0.1-0.4-0.1-0.7-0.3-0.9c-0.3-0.2-0.6-0.3-0.9-0.1l-0.3,0.1
			c-0.3,0.1-0.7,0.3-0.9,0.4c-13.7,7.1-22.7,23.7-21.4,39.5c0.2,2.5,0,4.8-0.7,7.1c-0.1,0.2-0.3,0.4-0.3,0.5
			c-6.5,2.9-12.7,4.9-18.9,6.4c-0.3,0.1-0.6,0.3-0.7,0.6c-0.1,0.3,0,0.7,0.2,0.9c0.7,0.8,1.3,1.7,1.7,2.7c0.2,0.4,0.7,0.6,1,0.5
			c5.1-1.2,10-2.8,14.7-4.6c0.4-0.2,0.7-0.2,0.9-0.2c1,0.1,2.1,0.4,3.4,0.7c0.3,0.1,0.5,0.2,0.5,0.2c2.7,5.5,7.2,9,14,10.8
			c1.5,0.4,3,0.6,4.5,0.8c1.6,0.2,3.4,0.3,5.3,0.3c2.6,0,4.5-0.2,4.5-0.2c5.9-0.7,10.9-2.1,15.3-4.2c1.8-0.9,3.9-2.1,5.5-4.2
			c0.3-0.4,0.3-1-0.1-1.3c-4.5-4.1-9.1-7.1-14-9.2c-7.3-3-13.9-3.8-20.5-2.5c-1,0.2-1.9,0.4-2.8,0.7c6.1-3.8,11.9-8.3,17.4-13.3
			c0.1-0.1,0.3-0.2,0.4-0.2c0.9-0.2,2.1-0.3,3.3-0.4c0.1,0,0.3,0.1,0.3,0.1c3.3,3.9,7.6,5.8,13.1,5.8c0.3,0,0.6,0,0.8,0
			c6-0.2,11.9-1.9,17.8-5.1c4.3-2.3,8.7-5,12.3-9c0.8-0.9,1.5-1.9,2.1-2.8l0.1-0.1c0.3-0.4,0.6-0.8,0.8-1.2c0.2-0.2,0.2-0.5,0.2-0.8
			c0-0.3-0.2-0.5-0.4-0.7c-0.1,0-1.6-0.9-3-1.4c-9.3-3.7-18.7-4.1-27.7-1.1c-2.9,1-5.7,2.5-8.4,4.5c5-6,9.6-12.6,13.8-19.7
			c0-0.1,0.2-0.3,0.2-0.3c0.4-0.2,0.7-0.5,1.1-0.7c0.7-0.4,1.4-0.8,2-1.3c0.5-0.4,0.7-0.4,1.3-0.1c0.8,0.5,1.7,0.8,2.5,1
			c4.7,1.2,9.4,0.6,14.5-1.9c4.7-2.3,8.4-6,11.6-9.6c4.7-5.3,7.8-10,9.7-15c0.4-1,0.7-2.1,1-3.2c0.1-0.5,0.2-0.9,0.4-1.4
			c0.1-0.5-0.1-1-0.6-1.2l-0.4,0c-1.9,0-19,0.3-29.1,10.4c-2.2,2.2-4.1,4.5-5.9,7.1c4-8.7,7.3-17.9,10-27.5l0-0.1
			c0-0.1,0.1-0.3,0.1-0.3l2.6-3.7c0.1-0.1,0.1-0.1,0.3-0.1c0.1,0,0.1,0,0.2,0l0.6,0c1.9,0.1,3.1,0.1,4,0c3.7-0.6,7.1-2.6,10.3-6
			c7.5-8,12.6-17.9,15.7-30.4c0.3-1.3,0.4-2.7,0.5-4.1c0-0.6,0.1-1.3,0.2-2C144.9,189.6,144.8,189.3,144.6,189.1z"/>
	</g>
</g>
</svg>
