<svg xmlns="http://www.w3.org/2000/svg" viewBox="0 0 554 733.4"><style>.st1{fill:gray}</style><g id="Colours"><path d="M511.9 717H44.6c-11.8 0-21.5-9.7-21.5-21.5v-648c0-11.8 9.7-21.5 21.5-21.5H512c11.8 0 21.5 9.7 21.5 21.5v648c-.1 11.8-9.7 21.5-21.6 21.5z" fill="#fff" stroke="#231f20" stroke-width="10" stroke-linecap="round" stroke-linejoin="round"/></g><g id="Main"><g id="AUTOMOTIVE"><path class="st1" d="M69.9 682.7H63l-2.9 8h-1.9l8.3-22.6 8.3 22.6h-1.9l-3-8zm-.7-1.8l-2.8-7.5-2.8 7.5h5.6zM119.3 669.2h1.8v15.4c-.2 1.7-.9 3.1-2.1 4.3-1.4 1.4-3.1 2.1-5.1 2.1-2 0-3.7-.7-5.1-2.1-1.4-1.4-2.1-3.1-2.1-5v-14.6h1.8v14.6c0 1.5.5 2.7 1.6 3.8 1 1 2.3 1.6 3.8 1.6s2.7-.5 3.8-1.6c1-1 1.6-2.3 1.6-3.8v-14.7zM160.4 671v19.7h-1.8V671h-5.3v-1.8h12.4v1.8h-5.3zM216.3 672.1c2.2 2.2 3.3 4.8 3.3 7.8s-1.1 5.6-3.3 7.8c-2.2 2.2-4.8 3.2-7.8 3.2-3.1 0-5.7-1.1-7.8-3.2-2.2-2.2-3.2-4.8-3.2-7.8s1.1-5.6 3.2-7.8c2.2-2.2 4.8-3.2 7.8-3.2 3.1 0 5.7 1.1 7.8 3.2zm-7.8-1.4c-2.6 0-4.7.9-6.5 2.7-1.8 1.8-2.7 4-2.7 6.5s.9 4.7 2.7 6.5c1.8 1.8 4 2.7 6.5 2.7 2.6 0 4.7-.9 6.6-2.7 1.8-1.8 2.7-4 2.7-6.5s-.9-4.7-2.7-6.5c-1.9-1.8-4-2.7-6.6-2.7zM254.8 669.2l7.7 13.3 7.7-13.3h2.1l-.3.5v21h-1.8v-17.9l-7.7 13.2-7.7-13.2v17.9H253v-21l-.3-.5h2.1zM324.4 672.1c2.2 2.2 3.3 4.8 3.3 7.8s-1.1 5.6-3.3 7.8c-2.2 2.2-4.8 3.2-7.9 3.2-3.1 0-5.7-1.1-7.8-3.2-2.2-2.2-3.2-4.8-3.2-7.8s1.1-5.6 3.2-7.8c2.2-2.2 4.8-3.2 7.8-3.2 3.1 0 5.7 1.1 7.9 3.2zm-7.8-1.4c-2.6 0-4.7.9-6.5 2.7-1.8 1.8-2.7 4-2.7 6.5s.9 4.7 2.7 6.5c1.8 1.8 4 2.7 6.5 2.7 2.6 0 4.7-.9 6.6-2.7 1.8-1.8 2.7-4 2.7-6.5s-.9-4.7-2.7-6.5c-1.9-1.8-4.1-2.7-6.6-2.7zM366.5 671v19.7h-1.8V671h-5.3v-1.8h12.4v1.8h-5.3zM406 669.2v21.5h-1.8v-21.5h1.8zM440.3 669.2l6.4 17.4 6.3-17.4h1.9l-8.3 22.6-8.3-22.6h2zM498.2 669.2v1.8h-9.3v8.1h9.3v1.8h-9.3v8.1h9.3v1.8H487v-21.5h11.2z"/></g><g id="INSPIRE"><path d="M58.3 577h10.4v66.1H58.3V577zM123.2 595.2v47.9h-9.3V577h13l10.7 39.6V577h9.3v66.1h-10.7l-13-47.9zM206 576.2c10.1 0 15.3 6 15.3 16.6v2.1h-9.8v-2.7c0-4.7-1.9-6.5-5.2-6.5-3.3 0-5.2 1.8-5.2 6.5 0 13.6 20.3 16.1 20.3 35 0 10.6-5.3 16.6-15.5 16.6s-15.5-6-15.5-16.6v-4.1h9.8v4.7c0 4.7 2.1 6.4 5.4 6.4 3.3 0 5.4-1.7 5.4-6.4 0-13.6-20.3-16.1-20.3-35 0-10.5 5.2-16.6 15.3-16.6zM295.9 593.3v8.6c0 10.6-5.1 16.3-15.5 16.3h-4.9V643h-10.4v-66h15.3c10.4 0 15.5 5.7 15.5 16.3zm-20.4-6.9v22.4h4.9c3.3 0 5.1-1.5 5.1-6.2v-9.9c0-4.7-1.8-6.2-5.1-6.2h-4.9zM338.4 577h10.4v66.1h-10.4V577zM415.8 643.1c-.6-1.7-.9-2.7-.9-8.1v-10.4c0-6.1-2.1-8.4-6.8-8.4h-3.6v26.9h-10.4V577h15.7c10.8 0 15.4 5 15.4 15.2v5.2c0 6.8-2.2 11.2-6.8 13.4 5.2 2.2 6.9 7.2 6.9 14.1V635c0 3.2.1 5.6 1.1 8h-10.6zm-11.3-56.7v20.3h4.1c3.9 0 6.2-1.7 6.2-7v-6.5c0-4.7-1.6-6.8-5.3-6.8h-5zM480.2 604.8h14.3v9.4h-14.3v19.4h17.9v9.4h-28.3v-66h28.3v9.4h-17.9v18.4z"/></g><g id="Icon"><path d="M320.9 49.9h-89L62.4 489.6v21.2h83l230.5-81 31.1 81h91.2L320.9 49.9zM187 403.9l90-231.8 67.7 176.3L187 403.9z"/><path opacity=".05" fill="#fff" d="M140.9 286.3l-6.1 224.2 10.4.3 6.9-253.8z"/><path d="M58.2 49.9h87.1v460.9H58.2V49.9z" fill="#1a1a1a"/></g></g></svg>